<svg width="32" height="32" viewBox="0 0 32 32" fill="none" xmlns="http://www.w3.org/2000/svg">
<path d="M12 13.3333H2.66667C2.31305 13.3333 1.97391 13.1928 1.72386 12.9427C1.47381 12.6927 1.33333 12.3535 1.33333 11.9999V2.66659C1.33333 2.31296 1.47381 1.97382 1.72386 1.72378C1.97391 1.47373 2.31305 1.33325 2.66667 1.33325H12C12.3536 1.33325 12.6928 1.47373 12.9428 1.72378C13.1929 1.97382 13.3333 2.31296 13.3333 2.66659V11.9999C13.3333 12.3535 13.1929 12.6927 12.9428 12.9427C12.6928 13.1928 12.3536 13.3333 12 13.3333Z" fill="#1E6262"/>
<path d="M12 30.6665H2.66667C2.31305 30.6665 1.97391 30.526 1.72386 30.276C1.47381 30.0259 1.33333 29.6868 1.33333 29.3332V19.9998C1.33333 19.6462 1.47381 19.3071 1.72386 19.057C1.97391 18.807 2.31305 18.6665 2.66667 18.6665H12C12.3536 18.6665 12.6928 18.807 12.9428 19.057C13.1929 19.3071 13.3333 19.6462 13.3333 19.9998V29.3332C13.3333 29.6868 13.1929 30.0259 12.9428 30.276C12.6928 30.526 12.3536 30.6665 12 30.6665Z" fill="#1E6262"/>
<path d="M17.3333 2.6665H30.6667V5.33317H17.3333V2.6665Z" fill="#F6FAFA"/>
<path d="M30.6667 20H17.3333V22.6667H30.6667V20Z" fill="#F6FAFA"/>
<path d="M30.6667 26.6665H17.3333V29.3332H30.6667V26.6665Z" fill="#333333"/>
<path d="M30.6667 9.33325H17.3333V11.9999H30.6667V9.33325Z" fill="#333333"/>
</svg>
