<svg width="63" height="43" viewBox="0 0 63 43" fill="none" xmlns="http://www.w3.org/2000/svg">
<path d="M56 0.104492H7C5.14348 0.104492 3.36301 0.785259 2.05025 1.99703C0.737498 3.20881 0 4.85232 0 6.56603L0 35.643C0 37.3567 0.737498 39.0002 2.05025 40.2119C3.36301 41.4237 5.14348 42.1045 7 42.1045H56C57.8565 42.1045 59.637 41.4237 60.9497 40.2119C62.2625 39.0002 63 37.3567 63 35.643V6.56603C63 4.85232 62.2625 3.20881 60.9497 1.99703C59.637 0.785259 57.8565 0.104492 56 0.104492Z" fill="#003399"/>
<path d="M30.5235 5.27708L32.1401 4.09598H30.1427L29.5238 2.18555L28.9069 4.09598H26.9094L28.526 5.27708L27.9072 7.18751L29.5238 6.00641L31.1404 7.18751L30.5235 5.27708ZM30.5235 38.4569L32.1401 37.2758H30.1427L29.5238 35.3654L28.9069 37.2758H26.9094L28.526 38.4569L27.9072 40.3674L29.5238 39.1863L31.1404 40.3674L30.5235 38.4569ZM14.0222 21.866L15.6388 20.6849H13.6395L13.0225 18.7745L12.4037 20.6849H10.4062L12.0229 21.866L11.4059 23.7765L13.0225 22.5954L14.6392 23.7765L14.0222 21.866ZM16.1301 13.6634L17.7467 12.4823H15.7474L15.1304 10.5719L14.5135 12.4823H12.5141L14.1307 13.6634L13.5138 15.5739L15.1304 14.3928L16.747 15.5739L16.1301 13.6634ZM16.1301 30.1624L17.7467 28.9813H15.7474L15.1304 27.0709L14.5135 28.9813H12.5141L14.1307 30.1624L13.5138 32.0729L15.1304 30.8918L16.747 32.0729L16.1301 30.1624ZM22.2729 7.49953L23.8895 6.31843H21.8901L21.2732 4.408L20.6562 6.31843H18.6569L20.2735 7.49953L19.6566 9.40996L21.2732 8.22886L22.8898 9.40996L22.2729 7.49953ZM22.2729 36.3417L23.8895 35.1606H21.8901L21.2732 33.2502L20.6562 35.1606H18.6569L20.2735 36.3417L19.6566 38.2521L21.2732 37.0729L22.8898 38.2521L22.2729 36.3417ZM44.9721 21.866L43.3555 20.6849H45.3548L45.9718 18.7745L46.5906 20.6849H48.5881L46.9715 21.866L47.5884 23.7765L45.9718 22.5954L44.3552 23.7765L44.9721 21.866ZM42.8642 13.6634L41.2476 12.4823H43.247L43.8639 10.5719L44.4808 12.4823H46.4802L44.8636 13.6634L45.4805 15.5739L43.8639 14.3928L42.2473 15.5739L42.8642 13.6634ZM42.8642 30.1624L41.2476 28.9813H43.247L43.8639 27.0709L44.4808 28.9813H46.4802L44.8636 30.1624L45.4805 32.0729L43.8639 30.8918L42.2473 32.0729L42.8642 30.1624ZM36.7215 7.49953L35.1049 6.31843H37.1042L37.7211 4.408L38.3381 6.31843H40.3374L38.7208 7.49953L39.3378 9.40996L37.7211 8.22886L36.1045 9.40996L36.7215 7.49953ZM36.7215 36.3417L35.1049 35.1606H37.1042L37.7211 33.2502L38.3381 35.1606H40.3374L38.7208 36.3417L39.3378 38.2521L37.7211 37.0729L36.1045 38.2521L36.7215 36.3417Z" fill="#FFCC00"/>
</svg>
