<svg width="27" height="24" viewBox="0 0 27 24" fill="none" xmlns="http://www.w3.org/2000/svg">
<ellipse cx="13.4856" cy="12" rx="12.6003" ry="12" fill="#1E6262" fill-opacity="0.79"/>
<path d="M17.7471 15.4543C18.0198 15.3156 18.2726 15.1614 18.5056 14.9917C18.7387 14.8221 18.9457 14.6328 19.1269 14.4238L20.7864 16.5244C20.4771 16.784 20.1407 17.0354 19.7775 17.2787C19.42 17.519 19.0411 17.741 18.6407 17.9447C17.8864 18.3285 17.1388 18.5848 16.398 18.7136C15.6541 18.8366 14.9372 18.8219 14.2474 18.6692C13.5603 18.508 12.9221 18.2014 12.3329 17.7494C11.7495 17.2945 11.2396 16.6781 10.8032 15.9002L9.13085 12.9193C8.66579 12.0903 8.38862 11.2971 8.29934 10.5397C8.21268 9.7736 8.2936 9.05364 8.5421 8.37979C8.79061 7.70594 9.18798 7.09137 9.73422 6.53608C10.2863 5.97784 10.9685 5.49204 11.7808 5.0787C12.1173 4.90746 12.4682 4.76177 12.8334 4.64163C13.2013 4.51286 13.5699 4.40555 13.9395 4.31971L14.8553 6.80971C14.6076 6.83355 14.3405 6.88919 14.0539 6.97663C13.7699 7.05543 13.5061 7.15684 13.2624 7.28084C12.8446 7.49341 12.5019 7.73347 12.2343 8.00101C11.9635 8.26287 11.7784 8.55778 11.6789 8.88573C11.5795 9.21369 11.5689 9.58037 11.6471 9.98577C11.7254 10.3912 11.9047 10.8437 12.185 11.3434L13.8669 14.3413C14.1376 14.8239 14.4215 15.1904 14.7186 15.4407C15.0156 15.691 15.3238 15.848 15.643 15.9118C15.968 15.9727 16.305 15.9618 16.654 15.8792C17.0055 15.7879 17.3699 15.6463 17.7471 15.4543ZM14.5813 9.41245L15.341 10.7666L8.13432 14.4336L7.37461 13.0794L14.5813 9.41245ZM15.9239 11.8057L16.6884 13.1684L9.48173 16.8353L8.71724 15.4726L15.9239 11.8057Z" fill="white"/>
</svg>
