<svg width="63" height="42" viewBox="0 0 63 42" fill="none" xmlns="http://www.w3.org/2000/svg">
<g clip-path="url(#clip0_2755_14955)">
<path d="M0 0H63.0001V42.0005H0V0Z" fill="white"/>
<path d="M35.4375 0H27.5625V17.0624H0V24.9374H27.5625V41.9999H35.4375V24.9374H63.0001V17.0624H35.4375V0Z" fill="#D80027"/>
<path d="M48.4539 28.3037L62.9999 36.3849V28.3037H48.4539ZM38.3477 28.3037L62.9999 41.9993V38.1266L45.3189 28.3037H38.3477ZM56.4333 41.9993L38.3477 31.9508V41.9993H56.4333Z" fill="#0052B4"/>
<path d="M38.3477 28.3037L62.9999 41.9993V38.1265L45.3189 28.3037H38.3477Z" fill="white"/>
<path d="M38.3477 28.3037L62.9999 41.9993V38.1265L45.3189 28.3037H38.3477Z" fill="#D80027"/>
<path d="M11.1162 28.3037L0 34.4794V28.3037H11.1162ZM24.6522 30.0453V41.9995H3.13659L24.6522 30.0453Z" fill="#0052B4"/>
<path d="M17.681 28.3037L0 38.1265V41.9993L24.6522 28.3037H17.681Z" fill="#D80027"/>
<path d="M14.546 13.6956L0 5.61439V13.6956H14.546ZM24.6522 13.6956L0 0V3.87278L17.681 13.6956H24.6522ZM6.56653 0L24.6522 10.0485V0H6.56653Z" fill="#0052B4"/>
<path d="M24.6522 13.6956L0 0V3.87278L17.681 13.6956H24.6522Z" fill="white"/>
<path d="M24.6522 13.6956L0 0V3.87278L17.681 13.6956H24.6522Z" fill="#D80027"/>
<path d="M51.8837 13.6957L62.9999 7.52002V13.6957H51.8837ZM38.3477 11.9541V0H59.8633L38.3477 11.9541Z" fill="#0052B4"/>
<path d="M45.3189 13.6956L62.9999 3.87278V0L38.3477 13.6956H45.3189Z" fill="#D80027"/>
</g>
<defs>
<clipPath id="clip0_2755_14955">
<rect width="63.0001" height="42" fill="white"/>
</clipPath>
</defs>
</svg>
