<svg width="446" height="324" viewBox="0 0 446 324" fill="none" xmlns="http://www.w3.org/2000/svg">
<path d="M191.143 302.744C274.743 302.744 342.515 234.973 342.515 151.372C342.515 67.7716 274.743 -1.52588e-05 191.143 -1.52588e-05C107.542 -1.52588e-05 39.7706 67.7716 39.7706 151.372C39.7706 234.973 107.542 302.744 191.143 302.744Z" fill="#006363"/>
<path d="M60.0619 323.717C93.2331 323.717 120.124 319.415 120.124 314.107C120.124 308.8 93.2331 304.497 60.0619 304.497C26.8906 304.497 0 308.8 0 314.107C0 319.415 26.8906 323.717 60.0619 323.717Z" fill="#006363"/>
<path d="M353.066 313.949C404.392 313.949 446 307.292 446 299.079C446 290.867 404.392 284.21 353.066 284.21C301.741 284.21 260.133 290.867 260.133 299.079C260.133 307.292 301.741 313.949 353.066 313.949Z" fill="#006363"/>
<path d="M332.418 156.155C332.418 156.155 333.21 158.792 328.726 161.166C324.243 163.539 322.924 172.506 328.199 175.144C333.473 177.781 335.056 181.21 332.418 183.583C329.781 185.957 325.034 192.286 331.363 193.869C337.693 195.451 338.484 198.616 336.638 199.935C334.792 201.253 340.858 197.561 340.858 197.561C340.858 197.561 341.913 203.891 347.451 202.308C352.99 200.726 368.55 170.66 360.638 166.44C352.726 162.221 332.418 156.155 332.418 156.155Z" fill="#2F2E41"/>
<path d="M341.977 181.621C341.977 181.621 344.713 191.196 339.925 191.88C336.954 192.343 334.139 193.516 331.718 195.3L340.609 206.926H357.024L367.283 196.667C367.283 196.667 353.604 186.408 356.34 180.253C359.075 174.098 341.977 181.621 341.977 181.621Z" fill="#FFB9B9"/>
<path opacity="0.1" d="M341.977 181.621C341.977 181.621 344.713 191.196 339.925 191.88C336.954 192.343 334.139 193.516 331.718 195.3L340.609 206.926H357.024L367.283 196.667C367.283 196.667 353.604 186.408 356.34 180.253C359.075 174.098 341.977 181.621 341.977 181.621Z" fill="black"/>
<path d="M346.081 300.625L361.811 306.097L372.754 306.781L372.07 297.206L349.5 290.531L346.081 300.625Z" fill="#FFB9B9"/>
<path d="M366.257 298.573C366.257 298.573 366.257 308.148 367.625 308.148C368.993 308.148 387.459 306.097 392.93 308.148C398.402 310.2 406.609 302.677 402.506 298.573C398.402 294.47 391.708 288.314 387.532 289.682C383.355 291.05 366.257 294.47 366.257 294.47V298.573Z" fill="#575A89"/>
<path d="M315.988 289.682C315.988 289.682 307.781 306.097 313.252 307.465C318.724 308.833 324.879 306.781 325.563 306.097C326.247 305.413 335.822 302.677 337.19 304.045C338.558 305.413 338.558 298.574 338.558 298.574L315.988 289.682Z" fill="#575A89"/>
<path d="M322.827 267.113C322.827 267.113 309.832 284.895 319.408 289.682C328.983 294.47 374.806 294.47 378.226 289.682C381.645 284.895 383.013 269.848 378.226 268.48C373.438 267.113 322.827 267.113 322.827 267.113Z" fill="#2F2E41"/>
<path opacity="0.2" d="M322.827 267.113C322.827 267.113 309.832 284.895 319.408 289.682C328.983 294.47 374.806 294.47 378.226 289.682C381.645 284.895 383.013 269.848 378.226 268.48C373.438 267.113 322.827 267.113 322.827 267.113Z" fill="black"/>
<path d="M347.449 186.409C356.136 186.409 363.179 179.366 363.179 170.678C363.179 161.99 356.136 154.948 347.449 154.948C338.761 154.948 331.718 161.99 331.718 170.678C331.718 179.366 338.761 186.409 347.449 186.409Z" fill="#FFB9B9"/>
<path d="M322.827 195.3L336.506 192.564C336.506 192.564 339.925 203.507 350.868 201.455C361.811 199.403 364.547 192.564 364.547 192.564C364.547 192.564 372.754 195.984 373.438 195.984C374.122 195.984 383.013 199.403 383.013 201.455C383.013 203.507 372.754 224.025 372.754 224.025L374.122 260.957L323.511 259.589L326.931 223.341L322.827 195.3Z" fill="#4D3454"/>
<path d="M315.304 213.082C315.304 213.082 311.2 249.33 313.936 252.066C316.672 254.802 327.615 262.325 327.615 262.325V254.118L322.143 243.859L327.615 219.921L315.304 213.082Z" fill="#FFB9B9"/>
<path d="M386.091 212.056C386.091 212.056 383.697 249.33 383.697 250.698C383.697 252.066 377.542 256.854 375.49 256.854C373.438 256.854 372.07 253.434 372.07 253.434L376.858 247.962L373.438 219.921L386.091 212.056Z" fill="#FFB9B9"/>
<path d="M379.594 264.377C379.594 264.377 410.371 247.279 411.055 264.377C411.739 281.475 395.324 288.315 395.324 288.315C395.324 288.315 352.92 301.03 351.21 296.382C349.501 291.734 346.081 284.211 348.817 283.527C351.552 282.843 354.972 281.475 356.34 282.843C357.708 284.211 374.806 272.584 374.806 272.584L379.594 264.377Z" fill="#2F2E41"/>
<path opacity="0.2" d="M393.956 262.325C393.956 262.325 387.801 265.061 385.749 267.113C383.697 269.164 374.806 272.584 374.806 272.584" stroke="black" stroke-width="0.811647" stroke-miterlimit="10"/>
<path d="M326.931 196.667L322.827 195.3C322.827 195.3 307.78 211.03 312.568 215.134C317.356 219.237 320.091 220.605 321.459 221.973C322.827 223.341 329.666 224.025 329.666 224.025L326.931 196.667Z" fill="#4D3454"/>
<path d="M376.858 200.087L383.013 201.455C383.013 201.455 387.801 211.714 389.169 213.082C390.537 214.45 387.117 213.766 385.065 216.502C383.013 219.237 380.962 224.025 376.858 224.025C372.754 224.025 367.283 217.185 367.283 217.185L376.858 200.087Z" fill="#4D3454"/>
<path d="M324.195 270.532C324.195 270.532 298.206 252.066 289.315 265.745C280.423 279.423 327.615 297.889 334.454 300.625C341.293 303.361 347.449 306.097 347.449 306.097C347.449 306.097 353.604 291.05 353.604 288.314C353.604 285.579 348.817 285.579 347.449 285.579C346.081 285.579 339.926 284.211 338.558 282.159C337.19 280.107 324.195 270.532 324.195 270.532Z" fill="#2F2E41"/>
<path opacity="0.2" d="M309.833 265.745C309.833 265.745 316.672 271.216 322.827 272.584C328.983 273.952 331.034 277.372 331.034 277.372" stroke="black" stroke-width="0.811647" stroke-miterlimit="10"/>
<path d="M319.477 240.029L320.023 268.987C320.042 269.944 320.437 270.854 321.123 271.52C321.81 272.187 322.732 272.554 323.689 272.544L377.578 271.938C378.496 271.928 379.376 271.569 380.04 270.935C380.705 270.301 381.103 269.439 381.156 268.522L382.792 240.169C382.82 239.677 382.748 239.183 382.579 238.719C382.41 238.256 382.148 237.831 381.809 237.472C381.47 237.113 381.062 236.827 380.608 236.632C380.155 236.436 379.666 236.336 379.173 236.336H323.102C322.62 236.336 322.143 236.432 321.699 236.618C321.254 236.805 320.852 237.078 320.514 237.422C320.177 237.766 319.911 238.173 319.733 238.621C319.555 239.069 319.468 239.547 319.477 240.029Z" fill="#575A89"/>
<path d="M348.289 150.918C348.289 150.918 349.166 153.839 344.199 156.469C339.232 159.098 337.771 169.032 343.615 171.953C349.458 174.875 351.211 178.673 348.289 181.303C345.368 183.932 340.109 190.944 347.121 192.697C354.133 194.45 355.009 197.956 352.964 199.417C350.919 200.878 357.639 196.788 357.639 196.788C357.639 196.788 358.807 203.8 364.943 202.047C371.078 200.294 377.2 168.428 370.361 160.221C364.001 152.59 348.289 150.918 348.289 150.918Z" fill="#2F2E41"/>
<path d="M346.423 147.91C346.424 143.63 359.23 146.706 364.721 152.682C368.523 156.82 374.297 163.047 369.458 167.436C364.619 171.825 377.753 177.578 381.275 179.322C384.798 181.067 391.753 186.401 385.473 189.98C379.193 193.558 379.295 197.171 381.658 198.026C384.021 198.882 376.447 196.755 376.447 196.755C376.447 196.755 377.213 203.822 370.832 203.788C364.451 203.754 346.144 168.687 350.518 158.939C354.584 149.876 346.423 147.91 346.423 147.91Z" fill="#2F2E41"/>
<path d="M349.197 146.972C332.072 145.941 330.353 158.832 330.353 158.832C330.471 166.291 342.318 162.657 345.608 163.769C349.578 160.913 357.229 155.51 362.701 151.654C358.728 148.857 354.048 147.234 349.197 146.972Z" fill="#2F2E41"/>
<path d="M344.318 229.229C344.318 229.229 328.956 157.236 232.808 105.011" stroke="white" stroke-width="0.811647" stroke-miterlimit="10"/>
<path d="M233.656 108.976L232.294 104.736L236.621 103.686L236.717 104.081L233.025 104.976L232.813 105.027L232.88 105.235L234.043 108.852L233.656 108.976Z" fill="#3F3D56" stroke="white" stroke-width="0.405823"/>
<path d="M27.7881 302.79C27.7881 311.908 22.3677 315.092 15.6808 315.092C15.5259 315.092 15.3712 315.09 15.2168 315.086C14.907 315.08 14.6001 315.065 14.2969 315.044C8.26209 314.617 3.57349 311.27 3.57349 302.79C3.57349 294.014 14.7882 282.94 15.6306 282.12L15.6321 282.119C15.6645 282.087 15.6808 282.072 15.6808 282.072C15.6808 282.072 27.7881 293.671 27.7881 302.79Z" fill="#006363"/>
<path d="M15.2399 313.697L19.668 307.509L15.2288 314.376L15.217 315.086C14.9072 315.08 14.6003 315.065 14.2971 315.044L14.7744 305.922L14.7707 305.851L14.7788 305.838L14.8238 304.976L10.3735 298.092L14.8378 304.33L14.8482 304.513L15.2089 297.62L11.3988 290.507L15.2553 296.41L15.6308 282.12L15.5696 293.387L19.3627 288.92L15.5541 294.358L15.4538 300.529L18.9953 294.607L15.439 301.437L15.383 304.868L20.5245 296.625L15.3638 306.065L15.2399 313.697Z" fill="white"/>
<path d="M85.5367 300.427L88.1266 298.503C88.1266 298.503 89.841 308.079 87.928 309.514C86.015 310.949 78.8413 313.34 78.8413 316.209C78.8413 319.079 62.5809 322.905 62.1026 318.601C61.6244 314.296 63.5374 311.905 63.5374 311.905C63.5374 311.905 71.1893 304.253 72.1458 302.818C73.1023 301.384 75.4936 298.514 75.4936 298.514L85.5367 300.427Z" fill="#2F2E41"/>
<path d="M47.2769 181.344C47.2769 181.344 47.3486 181.765 47.4729 182.534C47.5877 183.218 47.7455 184.184 47.9368 185.375C49.9455 197.633 55.804 233.717 55.4071 234.907C54.9288 236.342 51.5811 241.603 55.4071 243.038C55.7753 243.176 56.1722 243.626 56.5979 244.334C57.4194 245.858 58.0967 247.456 58.6209 249.107C60.9021 255.725 63.3412 266.319 64.752 273.655C65.369 276.878 65.7898 279.47 65.9141 280.829C65.9574 281.143 65.9622 281.461 65.9285 281.776C65.4502 283.689 68.798 290.384 70.2327 292.297C71.6675 294.21 74.0587 296.123 73.5804 298.036C73.1022 299.949 85.5366 305.21 86.9714 301.862C88.4061 298.514 88.4061 296.601 88.8843 295.645C89.3626 294.688 89.8408 287.993 87.4496 287.036C85.0584 286.08 86.4931 269.341 84.1019 265.993C83.3032 264.879 82.0837 261.106 80.8068 256.567C80.3046 254.788 79.7977 252.894 79.3003 250.996C77.2821 243.215 75.4934 235.386 75.4934 235.386L75.9717 179.431L49.6681 176.083L48.9938 177.57L47.6499 180.521L47.2769 181.344Z" fill="#2F2E41"/>
<path d="M45.8421 273.167C45.8421 273.167 42.0162 269.341 40.1032 273.167C38.1902 276.993 36.2772 291.819 32.9295 295.166C29.5817 298.514 25.2775 315.253 30.06 316.209C34.8425 317.166 40.1032 314.775 40.5814 311.905C41.0597 309.036 51.1028 294.21 51.1028 292.775C51.1028 291.341 44.4074 286.08 44.4074 286.08L45.8421 273.167Z" fill="#2F2E41"/>
<path d="M104.667 155.04C104.667 155.04 98.4493 210.995 97.0146 216.256C95.5798 221.516 87.9279 241.603 85.5367 244.951C83.1454 248.298 67.8415 275.558 65.9285 276.993C64.0155 278.428 60.1896 282.254 60.1896 282.254C60.1896 282.254 53.0159 289.427 52.0594 290.862C51.1029 292.297 42.9727 287.993 42.4944 285.123C42.0162 282.254 42.9727 277.471 43.4509 275.558C43.9292 273.645 42.4944 270.776 43.9292 269.341C45.3639 267.906 52.5376 260.733 52.5376 257.385C52.5376 254.037 64.972 234.429 69.7545 230.125C74.537 225.821 73.5805 218.647 73.5805 218.647V189.474L47.2769 181.344C47.2769 181.344 48.7116 158.388 52.0594 158.388C55.4071 158.388 99.4058 150.736 104.667 155.04Z" fill="#2F2E41"/>
<path d="M65.9285 75.1729C74.6448 75.1729 81.7107 68.1069 81.7107 59.3907C81.7107 50.6745 74.6448 43.6085 65.9285 43.6085C57.2123 43.6085 50.1464 50.6745 50.1464 59.3907C50.1464 68.1069 57.2123 75.1729 65.9285 75.1729Z" fill="#9F616A"/>
<path d="M71.1892 71.8251C71.1892 71.8251 73.1022 78.9988 75.4935 80.9118C77.8847 82.8248 69.2762 90.955 69.2762 90.955L53.0158 91.9115L50.1464 82.8248C50.1464 82.8248 55.4071 72.3034 53.9723 65.6079C52.5376 58.9124 71.1892 71.8251 71.1892 71.8251Z" fill="#9F616A"/>
<path d="M77.8847 79.9553C77.8847 79.9553 73.5804 80.4336 72.624 81.8683C71.6675 83.3031 64.972 87.6073 59.7113 86.6508C54.4506 85.6943 51.1028 84.2596 50.1463 84.7378C49.1898 85.2161 47.2769 95.2593 47.2769 95.2593L52.5376 110.563L51.5811 152.649L50.1463 164.127C50.1463 164.127 47.2769 160.301 58.7548 162.692C70.2327 165.083 85.0584 160.779 89.8409 160.301C94.6233 159.823 102.754 158.388 103.232 155.518C103.71 152.649 101.797 142.127 101.797 142.127L94.1451 110.085L89.3626 92.868L77.8847 79.9553Z" fill="#4D0534"/>
<path d="M73.361 77.7968C73.361 77.7968 77.4064 75.6511 78.8412 77.5641C80.2759 79.4771 98.4493 82.3465 98.4493 83.7813C98.4493 85.216 102.275 123.954 101.319 127.302C100.362 130.65 103.232 134.475 103.232 134.475L106.579 148.823C106.579 148.823 115.666 176.083 111.84 177.039C108.014 177.996 104.666 177.039 103.232 177.039C101.797 177.039 102.275 158.866 98.4493 154.084C94.6233 149.301 89.3626 137.345 88.4061 134.954C87.4496 132.563 75.4934 99.5635 75.9717 95.7375C76.4499 91.9115 73.361 77.7968 73.361 77.7968Z" fill="#D0CDE1"/>
<path d="M53.4943 79.9553C53.4943 79.9553 49.6683 79.9553 49.19 80.9118C48.7118 81.8683 43.9293 88.0855 42.0163 89.5203C40.1033 90.955 33.4079 97.1722 33.4079 98.607C33.4079 100.042 47.2771 110.563 47.2771 110.563C47.2771 110.563 53.016 138.78 50.1465 148.345C47.2771 157.91 42.9728 180.865 44.8858 182.3C46.7988 183.735 51.103 184.213 51.103 182.3C51.103 180.387 53.9725 159.823 56.3638 155.518C58.755 151.214 65.9287 123.954 63.0592 116.302C60.1897 108.65 53.4943 79.9553 53.4943 79.9553Z" fill="#D0CDE1"/>
<path d="M116.623 127.302C116.623 127.302 117.101 142.127 111.84 149.779C106.579 157.431 103.232 166.04 103.232 166.04C103.232 166.04 94.6232 163.648 93.1885 160.779C91.7538 157.91 82.6671 160.301 82.6671 159.344C82.6671 158.388 93.6667 153.605 94.6232 152.649C95.5797 151.692 98.9275 151.692 100.84 149.779C102.753 147.866 103.232 143.562 103.232 143.562L105.145 131.128L116.623 127.302Z" fill="#9F616A"/>
<path d="M76.7986 49.6598C78.0128 49.5495 79.265 49.4282 80.338 48.8495C82.7423 47.5528 83.3799 43.8603 81.5496 41.8325C81.0449 41.3166 80.4805 40.8627 79.8682 40.4806L76.2329 38.0062C74.6251 36.9118 72.9793 35.7995 71.104 35.2836C69.4079 34.817 67.6165 34.865 65.8608 34.9741C62.4524 35.1859 59.023 35.6235 55.8172 36.8003C52.6115 37.9771 49.621 39.9458 47.6795 42.7551C44.6015 47.2087 44.5592 53.2151 46.2544 58.3565C47.9497 63.498 51.1699 67.9751 54.3429 72.3615L55.9893 64.3283C56.136 63.6128 56.3256 62.8286 56.9207 62.4052C58.3997 61.3527 60.209 63.5136 62.0242 63.4996C63.1906 63.4906 64.1698 62.5313 64.6118 61.4519C65.0538 60.3725 65.083 59.1771 65.1852 58.0152C65.4018 55.5542 66.262 52.1299 68.5926 50.7727C70.7643 49.508 74.3575 49.8815 76.7986 49.6598Z" fill="#2F2E41"/>
<path opacity="0.1" d="M75.9131 181.73C75.9131 181.73 74.2979 228.451 73.3414 229.886C72.3849 231.321 73.3414 181.583 73.3414 181.583L75.9131 181.73Z" fill="black"/>
<path d="M94.6234 83.7813H98.4494C98.4494 83.7813 114.71 105.781 112.797 107.215C110.884 108.65 112.797 112.476 112.797 112.476L116.623 119.65C116.623 119.65 121.405 123.954 119.971 124.911C118.536 125.867 116.623 129.693 116.623 129.693C116.623 129.693 107.058 128.258 104.188 133.997L97.9856 126.167L94.6234 83.7813Z" fill="#D0CDE1"/>
<path d="M95.9758 90.8574L82.8473 96.2787L92.9501 120.744L106.079 115.323L95.9758 90.8574Z" fill="#2F2E41"/>
<path d="M94.437 105.207C95.8872 104.608 96.6168 103.042 96.0667 101.71C95.5166 100.378 93.8951 99.7835 92.4449 100.382C90.9948 100.981 90.2652 102.547 90.8153 103.879C91.3654 105.211 92.9869 105.805 94.437 105.207Z" fill="#841CA0"/>
<path d="M85.0586 122.041C85.0586 122.041 50.6248 150.736 44.8858 141.649C39.1468 132.562 51.103 124.911 51.103 124.911C51.103 124.911 61.6245 125.389 73.5806 117.737L85.5368 112.476C85.5368 112.476 96.4519 96.8929 100.171 102.827C103.891 108.761 93.8222 119.088 85.0586 122.041Z" fill="#9F616A"/>
<path d="M38.6686 96.694L33.4079 98.6069V112.954L31.4949 115.824C31.4949 115.824 31.9732 121.563 33.4079 122.998C34.8427 124.432 37.7121 123.954 36.7557 127.302C36.1808 129.484 36.0186 131.755 36.2774 133.997C36.2774 133.997 44.8859 144.997 45.3641 143.562C45.8423 142.127 52.5378 124.432 53.4943 124.432C54.4508 124.432 43.9294 96.694 43.9294 96.694H38.6686Z" fill="#D0CDE1"/>
<path d="M101.558 169.148C101.558 169.148 106.503 164.366 104.03 164.127C101.558 163.888 92.9495 159.105 91.5147 161.496C90.08 163.888 101.558 169.148 101.558 169.148Z" fill="#2F2E41"/>
<path d="M195.607 77.9183C199.417 77.9183 202.506 76.283 202.506 74.2659C202.506 72.2487 199.417 70.6134 195.607 70.6134C191.797 70.6134 188.708 72.2487 188.708 74.2659C188.708 76.283 191.797 77.9183 195.607 77.9183Z" fill="white"/>
<path d="M221.985 86.4405C206.429 80.5651 190.872 80.5651 175.316 86.4405V67.3668C190.533 62.7748 206.768 62.7748 221.985 67.3668V86.4405Z" stroke="white" stroke-width="0.811647" stroke-miterlimit="10"/>
<path d="M215.492 82.496C204.265 78.2555 193.037 78.2555 181.809 82.496V68.7298C192.792 65.4155 204.509 65.4155 215.492 68.7298V82.496Z" stroke="white" stroke-width="0.811647" stroke-miterlimit="10"/>
<path d="M198.042 76.295C201.852 76.295 204.941 74.6597 204.941 72.6426C204.941 70.6254 201.852 68.9902 198.042 68.9902C194.232 68.9902 191.143 70.6254 191.143 72.6426C191.143 74.6597 194.232 76.295 198.042 76.295Z" stroke="#008080" stroke-width="0.811647" stroke-miterlimit="10"/>
<path d="M200.68 100.792C204.413 100.03 207.112 97.81 206.709 95.8336C206.306 93.8572 202.952 92.8727 199.219 93.6346C195.486 94.3966 192.786 96.6164 193.19 98.5929C193.593 100.569 196.946 101.554 200.68 100.792Z" fill="white"/>
<path d="M228.229 103.867C211.812 101.221 196.57 104.332 182.502 113.2L178.688 94.5113C192.68 86.9689 208.587 83.7225 224.415 85.1786L228.229 103.867Z" stroke="white" stroke-width="0.811647" stroke-miterlimit="10"/>
<path d="M221.079 101.301C209.23 99.391 198.229 101.636 188.076 108.036L185.323 94.5482C195.421 89.1046 206.902 86.7615 218.326 87.8124L221.079 101.301Z" stroke="white" stroke-width="0.811647" stroke-miterlimit="10"/>
<path d="M202.741 98.7144C206.474 97.9525 209.173 95.7326 208.77 93.7562C208.367 91.7798 205.013 90.7952 201.28 91.5572C197.547 92.3191 194.847 94.539 195.251 96.5154C195.654 98.4919 199.008 99.4764 202.741 98.7144Z" stroke="#008080" stroke-width="0.811647" stroke-miterlimit="10"/>
<path d="M205.401 120.394C205.541 118.381 202.573 116.536 198.772 116.271C194.971 116.007 191.776 117.424 191.636 119.436C191.496 121.448 194.464 123.294 198.265 123.558C202.066 123.823 205.261 122.406 205.401 120.394Z" fill="white"/>
<path d="M223.988 133.891C208.877 126.95 193.358 125.87 177.431 130.652L178.755 111.624C194.255 108.099 210.45 109.226 225.312 114.864L223.988 133.891Z" stroke="white" stroke-width="0.811647" stroke-miterlimit="10"/>
<path d="M217.784 129.506C206.878 124.496 195.677 123.716 184.182 127.167L185.138 113.434C196.325 110.89 208.013 111.704 218.74 115.773L217.784 129.506Z" stroke="white" stroke-width="0.811647" stroke-miterlimit="10"/>
<path d="M207.943 118.943C208.083 116.931 205.115 115.085 201.314 114.821C197.513 114.556 194.318 115.973 194.178 117.986C194.038 119.998 197.006 121.844 200.807 122.108C204.608 122.373 207.803 120.956 207.943 118.943Z" stroke="#008080" stroke-width="0.811647" stroke-miterlimit="10"/>
<path d="M168.385 86.8834C168.385 86.8834 138.559 82.803 117.259 95.2855" stroke="white" stroke-width="0.811647" stroke-miterlimit="10"/>
<path d="M121.094 96.6248L116.762 95.5899L118.108 91.3454L118.496 91.468L117.346 95.0888L117.28 95.2969L117.493 95.3476L121.188 96.2293L121.094 96.6248Z" fill="#3F3D56" stroke="white" stroke-width="0.405823"/>
</svg>
