<svg width="223" height="20" viewBox="0 0 223 20" fill="none" xmlns="http://www.w3.org/2000/svg">
<path d="M13.4246 3.94873V0.377789H0V19.1722H3.97367V11.8692H12.8876V8.24459H3.97367V3.94873H13.4246Z" fill="#FDFDFD"/>
<path d="M37.5888 19.1722L31.3866 9.58704L37.374 0.377789H32.9707L28.9702 6.66049L24.9697 0.377789H20.5396L26.527 9.6139L20.3517 19.1722H24.8623L28.9702 12.6747L33.0513 19.1722H37.5888Z" fill="#FDFDFD"/>
<path d="M60.7063 14.1246C60.7063 11.6544 59.2565 10.0435 56.7595 9.53335C58.8269 8.91582 60.0083 7.43911 60.0083 5.29118C60.0083 2.28408 57.7529 0.377789 54.1014 0.377789H45.4023V19.1722H54.7458C58.4242 19.1722 60.7063 17.2391 60.7063 14.1246ZM52.9738 3.76078C55.1217 3.76078 55.954 4.40516 55.954 5.82817C55.954 7.25117 55.0949 7.94925 52.9738 7.94925H49.3223V3.76078H52.9738ZM56.5984 13.5607C56.5984 15.0911 55.7392 15.7892 53.6182 15.7892H49.3223V11.2785H53.6182C55.7392 11.2785 56.5984 12.0303 56.5984 13.5607Z" fill="#FDFDFD"/>
<path d="M73.2833 15.4939V0.377789H69.3096V19.1722H82.3046V15.4939H73.2833Z" fill="#FDFDFD"/>
<path d="M88.5027 9.80184C88.4222 15.2522 92.6912 19.6555 98.3564 19.5481C104.022 19.6555 108.291 15.2522 108.21 9.80184C108.291 4.35146 104.022 -0.105496 98.3564 0.0019011C92.6912 -0.105496 88.4222 4.35146 88.5027 9.80184ZM104.075 9.80184C104.075 13.3191 101.766 15.816 98.3564 15.816C94.9465 15.816 92.6375 13.3191 92.6375 9.80184C92.6375 6.2846 94.9465 3.73393 98.3564 3.73393C101.766 3.73393 104.075 6.2846 104.075 9.80184Z" fill="#FDFDFD"/>
<path d="M116.055 9.80184C115.974 15.2522 120.243 19.6555 125.908 19.5481C131.573 19.6555 135.842 15.2522 135.762 9.80184C135.842 4.35146 131.573 -0.105496 125.908 0.0019011C120.243 -0.105496 115.974 4.35146 116.055 9.80184ZM131.627 9.80184C131.627 13.3191 129.318 15.816 125.908 15.816C122.498 15.816 120.189 13.3191 120.189 9.80184C120.189 6.2846 122.498 3.73393 125.908 3.73393C129.318 3.73393 131.627 6.2846 131.627 9.80184Z" fill="#FDFDFD"/>
<path d="M160.656 0.377789L154.91 10.2583L149.164 0.377789H144.492V19.1722H148.386V6.06981L153.406 14.6347H156.413L161.434 6.06981V19.1722H165.327V0.377789H160.656Z" fill="#FDFDFD"/>
<path d="M173.586 15.3596C174.902 17.964 177.882 19.5481 181.668 19.5481C186.339 19.5481 189.078 17.1585 189.078 13.6144C189.078 10.849 187.36 9.07691 183.95 8.24459L180.835 7.51966C178.822 7.00953 178.123 6.4457 178.123 5.50598C178.123 4.32461 179.197 3.54599 181.238 3.54599C183.198 3.54599 184.728 4.21722 185.829 5.58652L188.595 3.43859C187.386 1.31751 184.648 0.0019011 181.292 0.0019011C176.808 0.0019011 174.096 2.31093 174.096 5.58652C174.096 8.27144 175.868 10.124 179.412 10.9832L182.446 11.7081C184.352 12.1377 185.051 12.7821 185.051 13.8292C185.051 15.1985 183.896 16.004 181.775 16.004C179.439 16.004 177.479 14.9837 176.378 13.2385L173.586 15.3596Z" fill="#FDFDFD"/>
<rect x="194.779" y="8.65723" width="27.4133" height="10.0996" rx="5" fill="#FDFDFD"/>
<path d="M207.115 12.679H206.965V12.829V13.4936V13.6436H207.115H208.626V13.986H207.115H206.965V14.136V14.8671V15.0171H207.115H208.809V15.3595H206.55V12.3365H208.809V12.679H207.115Z" fill="#1E6262" stroke="#1E6262" stroke-width="0.3"/>
<path d="M210.51 12.829V12.679H210.36H209.474V12.3365H211.943V12.679H211.074H210.924V12.829V15.3595H210.51V12.829Z" fill="#1E6262" stroke="#1E6262" stroke-width="0.3"/>
<path d="M214.702 14.9277L214.664 14.8334H214.563H213.078H212.977L212.939 14.9277L212.766 15.3595H212.293L213.523 12.3365H214.118L215.353 15.3595H214.875L214.702 14.9277ZM214.313 14.5131H214.536L214.452 14.3066L213.959 13.0937L213.82 12.7518L213.681 13.0937L213.189 14.3066L213.105 14.5131H213.328H214.313Z" fill="#1E6262" stroke="#1E6262" stroke-width="0.3"/>
<path d="M202.351 15.7826L202.138 15.6855V15.919V18.0892H201.421V11.3583C201.421 10.7831 201.596 10.3463 201.93 10.0227L201.93 10.0227L201.93 10.022C202.259 9.69914 202.724 9.52793 203.318 9.52793C203.895 9.52793 204.321 9.6643 204.634 9.91365C204.936 10.1663 205.089 10.5154 205.089 10.9765C205.089 11.2853 204.989 11.5771 204.782 11.8511C204.576 12.1242 204.312 12.3113 203.983 12.4152L203.878 12.4483V12.5583V12.575V12.7036L204.005 12.7233C204.525 12.804 204.909 12.9825 205.164 13.2563L205.164 13.2563L205.165 13.2578C205.421 13.524 205.552 13.8668 205.552 14.3037C205.552 14.8167 205.37 15.228 205.01 15.5462C204.646 15.8652 204.164 16.0291 203.543 16.0291C203.104 16.0291 202.706 15.9449 202.351 15.7826ZM203.965 11.9471L203.965 11.9471L203.967 11.9452C204.233 11.6912 204.377 11.3978 204.377 11.0562C204.377 10.7413 204.293 10.4776 204.101 10.2943C203.911 10.1122 203.639 10.0335 203.314 10.0335C202.953 10.0335 202.651 10.1455 202.439 10.3918C202.23 10.6335 202.138 10.9585 202.138 11.3541V15.0421V15.1296L202.215 15.1727C202.627 15.4054 203.037 15.5235 203.439 15.5235C203.827 15.5235 204.153 15.4247 204.391 15.213L204.391 15.213L204.392 15.2119C204.634 14.9924 204.744 14.6877 204.744 14.3246C204.744 13.9064 204.587 13.5681 204.27 13.3255C203.986 13.1083 203.585 12.9762 203.083 12.9145V12.3725C203.428 12.3095 203.722 12.1698 203.965 11.9471Z" fill="#1E6262" stroke="#1E6262" stroke-width="0.3"/>
</svg>
