<svg width="181" height="32" viewBox="0 0 181 32" fill="none" xmlns="http://www.w3.org/2000/svg">
    <path fill-rule="evenodd" clip-rule="evenodd" d="M0 6.42329C0 3.18508 2.62508 0.559998 5.86329 0.559998H25.0167C28.2549 0.559998 30.88 3.18508 30.88 6.42329V25.5767C30.88 28.8149 28.2549 31.44 25.0167 31.44H5.86329C2.62508 31.44 0 28.8149 0 25.5767V6.42329ZM9.99347 25.1858L12.3756 16.1197L9.99347 7.20506H6.25418L8.70577 16.1197L6.25418 25.1858H9.99347ZM15.8872 16.6405V25.1372H11.7764V20.6673L12.9796 16.1197L11.7764 11.7276V7.25768H19.9484L19.1817 10.0431H15.8872V13.9416H18.0922L17.5537 16.1197L17.6972 16.6405H15.8872ZM20.4956 25.1858L18.1135 16.1197L20.4956 7.20506H24.2349L21.7833 16.1197L24.2349 25.1858H20.4956ZM110.341 16.3536C110.285 20.1312 113.244 23.1831 117.17 23.1087C121.097 23.1831 124.056 20.1312 124 16.3536C124.056 12.576 121.097 9.48688 117.17 9.56132C113.244 9.48688 110.285 12.576 110.341 16.3536ZM121.134 16.3536C121.134 18.7914 119.534 20.522 117.17 20.522C114.807 20.522 113.207 18.7914 113.207 16.3536C113.207 13.9158 114.807 12.148 117.17 12.148C119.534 12.148 121.134 13.9158 121.134 16.3536ZM58.3045 9.82184V12.2968H51.7541V15.2743H57.9323V17.7865H51.7541V22.8481H49V9.82184H58.3045ZM70.7539 16.2047L75.0526 22.8481H71.9077L69.0791 18.3448L66.2319 22.8481H63.1056L67.3857 16.2233L63.2359 9.82184H66.3064L69.0791 14.1763L71.8518 9.82184H74.9037L70.7539 16.2047ZM91.0752 19.3496C91.0752 17.6376 90.0703 16.5211 88.3397 16.1675C89.7726 15.7395 90.5914 14.716 90.5914 13.2273C90.5914 11.1431 89.0282 9.82184 86.4974 9.82184H80.4681V22.8481H86.944C89.4935 22.8481 91.0752 21.5083 91.0752 19.3496ZM85.7158 12.1666C87.2046 12.1666 87.7814 12.6132 87.7814 13.5995C87.7814 14.5857 87.186 15.0696 85.7158 15.0696H83.185V12.1666H85.7158ZM88.2281 18.9589C88.2281 20.0196 87.6326 20.5034 86.1625 20.5034H83.185V17.3771H86.1625C87.6326 17.3771 88.2281 17.8981 88.2281 18.9589ZM99.7922 9.82184V20.2987H106.045V22.8481H97.0381V9.82184H99.7922ZM136.266 23.1087C132.34 23.1831 129.381 20.1312 129.437 16.3536C129.381 12.576 132.34 9.48688 136.266 9.56132C140.193 9.48688 143.152 12.576 143.096 16.3536C143.152 20.1312 140.193 23.1831 136.266 23.1087ZM136.266 20.522C138.63 20.522 140.23 18.7914 140.23 16.3536C140.23 13.9158 138.63 12.148 136.266 12.148C133.903 12.148 132.303 13.9158 132.303 16.3536C132.303 18.7914 133.903 20.522 136.266 20.522ZM160.35 9.82184L156.367 16.67L152.385 9.82184H149.147V22.8481H151.845V13.7669L155.325 19.7032H157.409L160.889 13.7669V22.8481H163.588V9.82184H160.35ZM174.913 23.1087C172.289 23.1087 170.223 22.0107 169.312 20.2057L171.247 18.7355C172.01 19.9451 173.368 20.6523 174.987 20.6523C176.457 20.6523 177.258 20.094 177.258 19.1449C177.258 18.4192 176.774 17.9726 175.452 17.6748L173.35 17.1724C170.893 16.5769 169.665 15.2929 169.665 13.432C169.665 11.1617 171.545 9.56132 174.652 9.56132C176.978 9.56132 178.877 10.4732 179.714 11.9433L177.797 13.432C177.034 12.4829 175.974 12.0177 174.615 12.0177C173.201 12.0177 172.456 12.5574 172.456 13.3762C172.456 14.0275 172.94 14.4183 174.336 14.7718L176.495 15.2743C178.858 15.8512 180.049 17.0793 180.049 18.9961C180.049 21.4525 178.151 23.1087 174.913 23.1087Z" fill="#1E6262"/>
</svg>