<svg width="181" height="31" viewBox="0 0 181 31" fill="none" xmlns="http://www.w3.org/2000/svg">
<path fill-rule="evenodd" clip-rule="evenodd" d="M0 5.86329C0 2.62508 2.62508 0 5.86329 0H25.0167C28.2549 0 30.88 2.62508 30.88 5.86329V25.0167C30.88 28.2549 28.2549 30.88 25.0167 30.88H5.86329C2.62508 30.88 0 28.2549 0 25.0167V5.86329ZM9.99347 24.6258L12.3756 15.5597L9.99347 6.64506H6.25418L8.70577 15.5597L6.25418 24.6258H9.99347ZM15.8872 16.0805V24.5772H11.7764V20.1073L12.9796 15.5597L11.7764 11.1676V6.69768H19.9484L19.1817 9.48308H15.8872V13.3816H18.0922L17.5537 15.5597L17.6972 16.0805H15.8872ZM20.4956 24.6258L18.1135 15.5597L20.4956 6.64506H24.2349L21.7833 15.5597L24.2349 24.6258H20.4956ZM110.341 15.7936C110.285 19.5712 113.244 22.6231 117.17 22.5487C121.097 22.6231 124.056 19.5712 124 15.7936C124.056 12.016 121.097 8.92688 117.17 9.00132C113.244 8.92688 110.285 12.016 110.341 15.7936ZM121.134 15.7936C121.134 18.2314 119.534 19.962 117.17 19.962C114.807 19.962 113.207 18.2314 113.207 15.7936C113.207 13.3558 114.807 11.588 117.17 11.588C119.534 11.588 121.134 13.3558 121.134 15.7936ZM58.3045 9.26184V11.7368H51.7541V14.7143H57.9323V17.2265H51.7541V22.2881H49V9.26184H58.3045ZM70.7539 15.6447L75.0526 22.2881H71.9077L69.0791 17.7848L66.2319 22.2881H63.1056L67.3857 15.6633L63.2359 9.26184H66.3064L69.0791 13.6163L71.8518 9.26184H74.9037L70.7539 15.6447ZM91.0752 18.7896C91.0752 17.0776 90.0703 15.9611 88.3397 15.6075C89.7726 15.1795 90.5914 14.156 90.5914 12.6673C90.5914 10.5831 89.0282 9.26184 86.4974 9.26184H80.4681V22.2881H86.944C89.4935 22.2881 91.0752 20.9483 91.0752 18.7896ZM85.7158 11.6066C87.2046 11.6066 87.7814 12.0532 87.7814 13.0395C87.7814 14.0257 87.186 14.5096 85.7158 14.5096H83.185V11.6066H85.7158ZM88.2281 18.3989C88.2281 19.4596 87.6326 19.9434 86.1625 19.9434H83.185V16.8171H86.1625C87.6326 16.8171 88.2281 17.3381 88.2281 18.3989ZM99.7922 9.26184V19.7387H106.045V22.2881H97.0381V9.26184H99.7922ZM136.266 22.5487C132.34 22.6231 129.381 19.5712 129.437 15.7936C129.381 12.016 132.34 8.92688 136.266 9.00132C140.193 8.92688 143.152 12.016 143.096 15.7936C143.152 19.5712 140.193 22.6231 136.266 22.5487ZM136.266 19.962C138.63 19.962 140.23 18.2314 140.23 15.7936C140.23 13.3558 138.63 11.588 136.266 11.588C133.903 11.588 132.303 13.3558 132.303 15.7936C132.303 18.2314 133.903 19.962 136.266 19.962ZM160.35 9.26184L156.367 16.11L152.385 9.26184H149.147V22.2881H151.845V13.207L155.325 19.1432H157.409L160.889 13.207V22.2881H163.588V9.26184H160.35ZM174.913 22.5487C172.289 22.5487 170.223 21.4507 169.312 19.6457L171.247 18.1756C172.01 19.3851 173.368 20.0923 174.987 20.0923C176.457 20.0923 177.258 19.534 177.258 18.5849C177.258 17.8592 176.774 17.4126 175.452 17.1148L173.35 16.6124C170.893 16.0169 169.665 14.7329 169.665 12.872C169.665 10.6017 171.545 9.00132 174.652 9.00132C176.978 9.00132 178.877 9.91316 179.714 11.3833L177.797 12.872C177.034 11.9229 175.974 11.4577 174.615 11.4577C173.201 11.4577 172.456 11.9974 172.456 12.8162C172.456 13.4675 172.94 13.8583 174.336 14.2118L176.495 14.7143C178.858 15.2912 180.049 16.5194 180.049 18.4361C180.049 20.8925 178.151 22.5487 174.913 22.5487Z" fill="white"/>
</svg>
