<svg width="63" height="42" viewBox="0 0 63 42" fill="none" xmlns="http://www.w3.org/2000/svg">
<path d="M2.08415 1.92928C3.38726 0.726394 5.15547 0.05 6.99994 0.05H20.9498V41.95H6.99994C5.15547 41.95 3.38727 41.2736 2.08415 40.0707C0.781168 38.868 0.05 37.2376 0.05 35.5385V6.46154C0.05 4.76244 0.781168 3.13204 2.08415 1.92928Z" fill="#1E6262" stroke="#1E6262" stroke-width="0.1"/>
<path d="M21.0495 0.05H41.9493V41.95H21.0495V0.05Z" fill="white" stroke="#1E6262" stroke-width="0.1"/>
<path d="M42.05 41.95V0.05H55.9999C57.8444 0.05 59.6126 0.726394 60.9157 1.92928C62.2186 3.13204 62.9498 4.76244 62.9498 6.46154V35.5385C62.9498 37.2376 62.2186 38.868 60.9157 40.0707C59.6126 41.2736 57.8444 41.95 55.9999 41.95H42.05Z" fill="#1E6262" stroke="#1E6262" stroke-width="0.1"/>
</svg>
