<svg width="32" height="32" viewBox="0 0 32 32" fill="none" xmlns="http://www.w3.org/2000/svg">
<path d="M15.208 0.176053L0.781327 6.91605C0.683766 6.96079 0.601118 7.03263 0.543221 7.123C0.485324 7.21338 0.454618 7.31848 0.454758 7.42581C0.454899 7.53314 0.485879 7.63817 0.544012 7.7284C0.602145 7.81862 0.684982 7.89024 0.782659 7.93472L15.3227 14.6254C15.752 14.8227 16.248 14.8227 16.6773 14.6254L31.2173 7.93472C31.3151 7.89036 31.398 7.81886 31.4562 7.72871C31.5145 7.63856 31.5456 7.53357 31.5459 7.42624C31.5462 7.31891 31.5156 7.21376 31.4578 7.12331C31.4 7.03286 31.3175 6.96092 31.22 6.91605L16.792 0.176053C16.544 0.0601784 16.2737 0.00012207 16 0.00012207C15.7263 0.00012207 15.4559 0.0601784 15.208 0.176053Z" fill="#1E6262"/>
<path opacity="0.64" d="M31.22 15.5681L28.24 14.1761C28.0266 14.0764 27.794 14.0244 27.5584 14.0237C27.3229 14.023 27.09 14.0736 26.876 14.1721L16.6773 18.8654C16.4649 18.9631 16.2338 19.0137 16 19.0137C15.7662 19.0137 15.5351 18.9631 15.3227 18.8654L5.12266 14.1721C4.90885 14.0738 4.67621 14.0233 4.44089 14.024C4.20558 14.0247 3.97324 14.0766 3.76 14.1761L0.779998 15.5681C0.682495 15.613 0.599941 15.6849 0.542162 15.7754C0.484383 15.8658 0.453815 15.971 0.454096 16.0783C0.454377 16.1856 0.485494 16.2906 0.543746 16.3808C0.601998 16.4709 0.68493 16.5424 0.782666 16.5868L15.3227 23.2761C15.535 23.3743 15.7661 23.4252 16 23.4252C16.2339 23.4252 16.465 23.3743 16.6773 23.2761L31.2173 16.5868C31.3151 16.5424 31.398 16.4709 31.4563 16.3808C31.5145 16.2906 31.5456 16.1856 31.5459 16.0783C31.5462 15.971 31.5156 15.8658 31.4578 15.7754C31.4001 15.6849 31.3175 15.613 31.22 15.5681Z" fill="#333333"/>
<path d="M31.22 24.1441L28.24 22.7521C28.0266 22.6524 27.794 22.6004 27.5584 22.5997C27.3229 22.599 27.09 22.6496 26.876 22.7481L16.6773 27.4401C16.4649 27.5378 16.2338 27.5883 16 27.5883C15.7662 27.5883 15.5351 27.5378 15.3227 27.4401L5.12267 22.7468C4.90885 22.6485 4.67621 22.5979 4.4409 22.5986C4.20558 22.5993 3.97324 22.6512 3.76 22.7507L0.780003 24.1441C0.682876 24.1891 0.600693 24.261 0.543189 24.3513C0.485686 24.4416 0.455272 24.5465 0.455553 24.6536C0.455834 24.7607 0.486798 24.8654 0.544774 24.9554C0.60275 25.0454 0.685309 25.1169 0.782671 25.1614L15.3227 31.8521C15.752 32.0494 16.248 32.0494 16.6773 31.8521L31.2173 25.1614C31.3147 25.1169 31.3973 25.0454 31.4552 24.9554C31.5132 24.8654 31.5442 24.7607 31.5445 24.6536C31.5447 24.5465 31.5143 24.4416 31.4568 24.3513C31.3993 24.261 31.3171 24.1891 31.22 24.1441Z" fill="#F6FAFA"/>
</svg>
