<svg width="63" height="42" viewBox="0 0 63 42" fill="none" xmlns="http://www.w3.org/2000/svg">
<g clip-path="url(#clip0_2755_14954)">
<path d="M0 0H63V42H0V0Z" fill="white"/>
<path d="M0 0.000976562H63V3.2308H0V0.000976562ZM0 6.46063H63V9.69045H0V6.46063ZM0 12.9203H63V16.1501H0V12.9203ZM0 19.3799H63V22.6097H0V19.3799ZM0 25.8519H63V29.0817H0V25.8519ZM0 32.3115H63V35.5413H0V32.3115ZM0 38.7712H63V42.001H0V38.7712Z" fill="#D80027"/>
<path d="M0 0H31.5V22.6088H0V0Z" fill="#2E52B2"/>
<path d="M5.86992 17.0587L5.37869 15.4868L4.83834 17.0587H3.21729L4.53132 18.0044L4.04009 19.5763L5.37869 18.6061L6.68044 19.5763L6.17693 18.0044L7.51553 17.0587H5.86992ZM12.784 17.0587L12.2804 15.4868L11.7647 17.0587H10.1436L11.4576 18.0044L10.9664 19.5763L12.2804 18.6061L13.6068 19.5763L13.1155 18.0044L14.4296 17.0587H12.784ZM19.7226 17.0587L19.1945 15.4868L18.7033 17.0587H17.0454L18.3962 18.0044L17.8804 19.5763L19.1945 18.6061L20.5454 19.5763L20.0296 18.0044L21.3436 17.0587H19.7226ZM26.6243 17.0587L26.1331 15.4868L25.6173 17.0587H23.984L25.3103 18.0044L24.819 19.5763L26.1331 18.6061L27.4594 19.5763L26.9313 18.0044L28.2822 17.0587H26.6243ZM12.2804 9.24822L11.7647 10.8201H10.1436L11.4576 11.7903L10.9664 13.3377L12.2804 12.3798L13.6068 13.3377L13.1155 11.7903L14.4296 10.8201H12.784L12.2804 9.24822ZM5.37869 9.24822L4.83834 10.8201H3.21729L4.53132 11.7903L4.04009 13.3377L5.37869 12.3798L6.68044 13.3377L6.17693 11.7903L7.51553 10.8201H5.86992L5.37869 9.24822ZM19.1945 9.24822L18.7033 10.8201H17.0454L18.3962 11.7903L17.8804 13.3377L19.1945 12.3798L20.5454 13.3377L20.0296 11.7903L21.3436 10.8201H19.7226L19.1945 9.24822ZM26.1331 9.24822L25.6173 10.8201H23.984L25.3103 11.7903L24.819 13.3377L26.1331 12.3798L27.4594 13.3377L26.9313 11.7903L28.2822 10.8201H26.6243L26.1331 9.24822ZM5.37869 3.03418L4.83834 4.58155H3.21729L4.53132 5.55172L4.04009 7.11137L5.37869 6.1412L6.68044 7.11137L6.17693 5.55172L7.51553 4.58155H5.86992L5.37869 3.03418ZM12.2804 3.03418L11.7647 4.58155H10.1436L11.4576 5.55172L10.9664 7.11137L12.2804 6.1412L13.6068 7.11137L13.1155 5.55172L14.4296 4.58155H12.784L12.2804 3.03418ZM19.1945 3.03418L18.7033 4.58155H17.0454L18.3962 5.55172L17.8804 7.11137L19.1945 6.1412L20.5454 7.11137L20.0296 5.55172L21.3436 4.58155H19.7226L19.1945 3.03418ZM26.1331 3.03418L25.6173 4.58155H23.984L25.3103 5.55172L24.819 7.11137L26.1331 6.1412L27.4594 7.11137L26.9313 5.55172L28.2822 4.58155H26.6243L26.1331 3.03418Z" fill="white"/>
</g>
<defs>
<clipPath id="clip0_2755_14954">
<path d="M0 5C0 2.23858 2.23858 0 5 0H58C60.7614 0 63 2.23858 63 5V37C63 39.7614 60.7614 42 58 42H5C2.23858 42 0 39.7614 0 37V5Z" fill="white"/>
</clipPath>
</defs>
</svg>
