<svg width="30" height="30" viewBox="0 0 30 30" fill="none" xmlns="http://www.w3.org/2000/svg">
<path d="M29.6667 6.99998V1.66665C29.6667 1.31302 29.5262 0.973885 29.2761 0.723836C29.0261 0.473788 28.687 0.333313 28.3333 0.333313H1.66667C1.31305 0.333313 0.973908 0.473788 0.723859 0.723836C0.473811 0.973885 0.333336 1.31302 0.333336 1.66665V6.99998H29.6667Z" fill="#F6FAFA"/>
<path d="M0.333336 9.66663V28.3333C0.333336 28.6869 0.473811 29.0261 0.723859 29.2761C0.973908 29.5262 1.31305 29.6666 1.66667 29.6666H8.33334V9.66663H0.333336Z" fill="#333333"/>
<path d="M11 29.6666H28.3333C28.687 29.6666 29.0261 29.5262 29.2761 29.2761C29.5262 29.0261 29.6667 28.6869 29.6667 28.3333V9.66663H11V29.6666Z" fill="#1E6262"/>
</svg>
